<svg id="Layer_1" height="512" viewBox="0 0 64 64" width="512" xmlns="http://www.w3.org/2000/svg" data-name="Layer 1"><path d="m16.525 47.876c3.759 5.84 8.95 5.307 8.95 5.307a7.549 7.549 0 0 0 -1.416-2.012 11.093 11.093 0 0 0 -7.534-3.295z" fill="#5e9415"/><path d="m39.155 29.529-4 3.558-18.039 7.413 2.11 1.714a10.367 10.367 0 0 1 3.831 7.927l-.057 3.359v8.5h18v-24a5.83 5.83 0 0 1 2.441-4.744l.972-.694zm-6.441 13.609a2.142 2.142 0 0 1 -2.143 2.143 2.142 2.142 0 0 1 -2.142-2.143v-1.973a11.769 11.769 0 0 0 4.285-2.48z" fill="#79a837"/><path d="m43.441 33.256.972-.694-5.258-3.033-4 3.558-18.039 7.413 2.11 1.714a10.324 10.324 0 0 1 1.714 1.786h1.56a2.5 2.5 0 0 1 2.5 2.5 2.5 2.5 0 0 0 2.5 2.5h6a2.5 2.5 0 0 0 2.5-2.5v-6.548a2.5 2.5 0 0 1 1.894-2.425l3.255-.814a5.83 5.83 0 0 1 2.292-3.457zm-10.727 9.882a2.142 2.142 0 0 1 -2.143 2.143 2.142 2.142 0 0 1 -2.142-2.143v-1.973a11.769 11.769 0 0 0 4.285-2.48z" fill="#719e34"/><path d="m56.417 12a8.79 8.79 0 0 0 -5.153-.914c.563-2.672-1.244-5.8-4.481-7.43-3.136-1.576-6.6-1.226-8.456.659a9.571 9.571 0 0 0 -6.327-2.315c-4.626 0-8.437 3.1-8.943 7.094l-.057-.057a9.625 9.625 0 0 0 -6-2.037c-4.971 0-9 3.582-9 8a7.454 7.454 0 0 0 2.061 5.1l-.061-.017a6.182 6.182 0 0 0 -2.333.061 6 6 0 1 0 4.917 10.669 8.727 8.727 0 0 0 4.687 9.765 14.758 14.758 0 0 0 6.318 1.368c6.4 0 11.59-3.793 11.59-8.473 0-3.034-2.182-5.7-5.462-7.193l4.283-2.28 4 2 9 4.513a12.421 12.421 0 0 0 9.712-7.3c.757-1.537 3.081-1.245 3.8-2.673 1.435-2.862-.398-6.685-4.095-8.54z" fill="#5e9415"/><path d="m36.554 58a13.266 13.266 0 0 0 4.046-1.535c.133-.074.269-.155.405-.236v-6.1a15.569 15.569 0 0 0 -4.451 7.871z" fill="#719e34"/><path d="m48.4 45.152c-9.641 3.214-10.766 10.768-10.766 10.768a11.062 11.062 0 0 0 3.366-1.279 16.251 16.251 0 0 0 7.4-9.489z" fill="#5e9415"/><path d="m48.815 13.975c-4.779 0-8.694 2.952-9.089 6.708a8.12 8.12 0 0 0 -3.8 4.282l2.074 1.035.04.02a6.059 6.059 0 0 1 3.254-4.332c.32-3.044 3.493-5.436 7.367-5.436 4.086 0 7.4 2.66 7.4 5.942 0 .15-.014.3-.028.445a7.084 7.084 0 0 1 .641.645c.013-.025.027-.049.04-.075a5 5 0 0 0 -.117-5.74 9.778 9.778 0 0 0 -7.782-3.494z" fill="#548513"/><path d="m13.227 29a7.987 7.987 0 0 1 -4.227 1.054 6 6 0 0 1 -5.914-5.027 6 6 0 0 0 9.5 5.786z" fill="#548513"/><path d="m9 18.054a5.989 5.989 0 0 1 1 .083l.061.012a7.55 7.55 0 0 1 -1.987-4.125 6.961 6.961 0 0 0 .626 4.045c.1-.005.2-.015.3-.015z" fill="#5e9415"/><circle cx="32" cy="21" fill="#5e9415" r="8"/><g fill="#548513"><path d="m32 13a8 8 0 0 1 7.931 7 8 8 0 1 0 -15.862 0 8 8 0 0 1 7.931-7z"/><path d="m17 7c-.338 0-.671.02-1 .052 4.5.443 8 3.83 8 7.948s-3.5 7.5-8 7.948c.329.032.662.052 1 .052 4.971 0 9-3.582 9-8s-4.029-8-9-8z"/><path d="m38 14a5.995 5.995 0 0 1 10.77-3.629 6 6 0 1 0 -10.54 5.258 6 6 0 0 1 -.23-1.629z"/><path d="m33.74 28.805a7.561 7.561 0 0 0 4.721-3.088l.364-1.8s-3.825 2.083-5.825 2.083-5-3-7-3c-1.667 0-1.225 1.6-.051 2.057 1.281.5 2.9.081 4.051.943z"/><ellipse cx="29" cy="7.5" rx="1" ry=".5"/><ellipse cx="7.5" cy="24.5" rx="1.5" ry=".5"/><ellipse cx="10" cy="26.5" rx="1" ry=".5"/><ellipse cx="17" cy="17.5" rx="1" ry=".5"/><ellipse cx="31" cy="5.5" rx="1" ry=".5"/><ellipse cx="26" cy="30.5" rx="1" ry=".5"/><ellipse cx="29" cy="33.5" rx="1" ry=".5"/><path d="m23.589 40c-5.326 0-9.792-2.633-11.146-6.211a8.645 8.645 0 0 0 4.757 6.749c.08.039.166.072.247.11a14.8 14.8 0 0 0 6.146 1.3c6.4 0 11.59-3.793 11.59-8.473a6.315 6.315 0 0 0 -.086-.956c-.676 4.21-5.566 7.481-11.508 7.481z"/><ellipse cx="45.868" cy="11.393" rx=".876" ry=".393"/><ellipse cx="32.083" cy="14.512" rx=".631" ry=".488"/><ellipse cx="35.063" cy="15.793" rx=".867" ry=".293"/><ellipse cx="17.223" cy="9.728" rx=".777" ry=".229"/><ellipse cx="21.742" cy="13.4" rx=".742" ry=".4"/><ellipse cx="56.779" cy="14.756" rx=".779" ry=".244"/><circle cx="16.558" cy="33.075" r=".558"/><circle cx="15.989" cy="34.457" r=".457"/></g><path d="m48.661 16.252c-3.874 0-7.047 2.392-7.367 5.436-2.018 1.189-3.294 2.902-3.294 4.812 0 2.735 2.6 5.071 6.282 6.031.017.029.038.056.055.085l.076-.054-.076.054a6.185 6.185 0 0 0 11.463-2.055 5.3 5.3 0 0 0 2.2-4.061 5.182 5.182 0 0 0 -1.969-3.861c.014-.147.028-.295.028-.445 0-3.282-3.312-5.942-7.398-5.942z" fill="#5e9415"/><path d="m55.8 27.838a6.185 6.185 0 0 1 -11.464 2.055c-.017-.029-.038-.056-.055-.086-3.053-.8-5.358-2.54-6.057-4.673a4.322 4.322 0 0 0 -.224 1.366c0 2.735 2.6 5.071 6.282 6.031.017.029.038.056.055.085a6.185 6.185 0 0 0 11.463-2.055 5.3 5.3 0 0 0 2.2-4.061 4.3 4.3 0 0 0 -.23-1.361 5.929 5.929 0 0 1 -1.97 2.699z" fill="#548513"/><ellipse cx="48" cy="21.5" fill="#548513" rx="1" ry=".5"/><ellipse cx="52" cy="22.5" fill="#548513" rx="1" ry=".5"/><path d="m41 45.766a.974.974 0 0 0 -.432.161l-5.068 3.567h-2.643a1 1 0 0 0 0 2h2.958a1 1 0 0 0 .575-.182l4.61-3.244z" fill="#719e34"/><path d="m28.026 57.652 1.929-.714a1 1 0 0 0 -.695-1.876l-1.761.652h-4.499v2h4.679a1 1 0 0 0 .347-.062z" fill="#719e34"/></svg>