<svg height="512" viewBox="0 0 512 512" width="512" xmlns="http://www.w3.org/2000/svg"><g id="filled_outline" data-name="filled outline"><path d="m217.876 417.879-26.386-134.444-47.1 9.245 26.385 134.443a32 32 0 1 0 34.855 52.977 32 32 0 1 0 12.246-62.223z" fill="#e2e2e2"/><path d="m213.332 313.421-11.057 24.966-47.1 9.244-19.675-18.931a223.162 223.162 0 0 1 -64.233-117.817 80 80 0 0 1 20.863-70.883 80 80 0 0 1 90.036-17.671 80 80 0 0 1 46.106 57.74 223.168 223.168 0 0 1 -14.94 133.352z" fill="#ea9d2d"/><path d="m162.062 183.074a8 8 0 0 1 -7.842-6.461l-1.54-7.85-7.851 1.541a8 8 0 0 1 -3.081-15.7l15.7-3.082a8 8 0 0 1 9.39 6.31l3.081 15.7a8 8 0 0 1 -6.309 9.392 8.128 8.128 0 0 1 -1.548.15z" fill="#d18d28"/><path d="m201.166 216.163a8 8 0 0 1 -7.841-6.461l-1.541-7.85-7.85 1.541a8 8 0 0 1 -3.081-15.7l15.7-3.081a8 8 0 0 1 9.39 6.31l3.082 15.7a8 8 0 0 1 -6.309 9.392 8.212 8.212 0 0 1 -1.55.149z" fill="#d18d28"/><path d="m355.539 369.965 13.745-136.317-47.758-4.816-13.745 136.317a32 32 0 1 0 17.99 60.812 32 32 0 1 0 29.768-56z" fill="#e2e2e2"/><path d="m420.525 145.969a40.009 40.009 0 0 1 -49.562-56.569 32.016 32.016 0 0 1 -7.442-31.548 79.9 79.9 0 0 0 -47.721 9.706 80 80 0 0 0 -40.526 61.784 223.172 223.172 0 0 0 27.3 131.38l13.336 23.827 47.757 4.815 17.824-20.685a223.168 223.168 0 0 0 50.509-105.817 32.113 32.113 0 0 1 -11.475-16.893z" fill="#ea9d2d"/><path d="m410 104a8 8 0 0 1 -8-8c0-6.578-1.953-9.508-4.656-13.562-3.272-4.908-7.344-11.016-7.344-22.438s4.072-17.53 7.344-22.438c2.703-4.054 4.656-6.984 4.656-13.562a8 8 0 0 1 16 0c0 11.422-4.072 17.53-7.344 22.438-2.703 4.054-4.656 6.984-4.656 13.562s1.953 9.508 4.656 13.562c3.272 4.908 7.344 11.016 7.344 22.438a8 8 0 0 1 -8 8z" fill="#ffc864"/><path d="m448 104a8 8 0 0 1 -8-8c0-6.578-1.953-9.508-4.656-13.562-3.272-4.908-7.344-11.016-7.344-22.438s4.072-17.53 7.344-22.438c2.703-4.054 4.656-6.984 4.656-13.562a8 8 0 0 1 16 0c0 11.422-4.072 17.53-7.344 22.438-2.703 4.054-4.656 6.984-4.656 13.562s1.953 9.508 4.656 13.562c3.272 4.908 7.344 11.016 7.344 22.438a8 8 0 0 1 -8 8z" fill="#ffc864"/><path d="m488 104a8 8 0 0 1 -8-8c0-6.578-1.953-9.508-4.656-13.562-3.272-4.908-7.344-11.016-7.344-22.438s4.072-17.53 7.344-22.438c2.703-4.054 4.656-6.984 4.656-13.562a8 8 0 0 1 16 0c0 11.422-4.072 17.53-7.344 22.438-2.703 4.054-4.656 6.984-4.656 13.562s1.953 9.508 4.656 13.562c3.272 4.908 7.344 11.016 7.344 22.438a8 8 0 0 1 -8 8z" fill="#ffc864"/><g fill="#d18d28"><path d="m157.146 241.107a8 8 0 0 1 -7.841-6.461l-1.541-7.85-7.851 1.541a8 8 0 0 1 -3.081-15.7l15.7-3.081a8 8 0 0 1 9.39 6.309l3.082 15.7a8 8 0 0 1 -6.309 9.392 8.131 8.131 0 0 1 -1.549.15z"/><path d="m327.154 181.116a8.006 8.006 0 0 1 -7.969-8.8l.8-7.959-7.96-.8a8 8 0 0 1 1.605-15.92l15.92 1.605a8 8 0 0 1 7.158 8.758l-1.6 15.92a8 8 0 0 1 -7.954 7.196z"/><path d="m371.7 217.77q-.4 0-.812-.041a8 8 0 0 1 -7.157-8.763l.8-7.959-7.959-.8a8 8 0 0 1 1.605-15.92l15.923 1.603a8 8 0 0 1 7.157 8.762l-1.6 15.919a8 8 0 0 1 -7.957 7.199z"/></g><path d="m145.342 463.7a40.031 40.031 0 0 0 39.167 32.309 40.426 40.426 0 0 0 7.786-.761 40 40 0 0 0 15.058-6.36 40.005 40.005 0 0 0 17.278-78.123l-14.02-71.442 10.036-22.66a230.043 230.043 0 0 0 15.475-138.132 88 88 0 1 0 -172.7 33.9 230.048 230.048 0 0 0 66.53 122.029l17.857 17.186 14.021 71.441a39.991 39.991 0 0 0 -16.488 40.613zm12.378-124.721-16.672-16.046a214.137 214.137 0 0 1 -61.931-113.591 72 72 0 0 1 141.305-27.732 214.136 214.136 0 0 1 -14.4 128.572l-9.371 21.157zm16.5 95.363a8 8 0 0 0 4.4-8.76l-14.061-71.641 31.4-6.163 14.06 71.642a8 8 0 0 0 7.386 6.445 24 24 0 1 1 -9.183 46.671 8 8 0 0 0 -7.864 1.544 24 24 0 1 1 -26.141-39.738z"/><path d="m166.839 157.831a8 8 0 0 0 -9.39-6.31l-15.7 3.082a8 8 0 0 0 3.081 15.7l7.851-1.541 1.54 7.85a8 8 0 0 0 7.842 6.461 8.128 8.128 0 0 0 1.549-.151 8 8 0 0 0 6.309-9.392z"/><path d="m202.716 216.012a8 8 0 0 0 6.309-9.392l-3.082-15.7a8 8 0 0 0 -9.39-6.31l-15.7 3.081a8 8 0 0 0 3.081 15.7l7.85-1.541 1.541 7.85a8 8 0 0 0 7.841 6.461 8.212 8.212 0 0 0 1.55-.149z"/><path d="m387.549 273.9a231.345 231.345 0 0 0 52.323-109.61 8 8 0 0 0 -3.024-7.792 24.214 24.214 0 0 1 -8.617-12.675 8 8 0 0 0 -10.617-5.305 32.008 32.008 0 0 1 -39.646-45.259 8 8 0 0 0 -1.217-9.386 23.987 23.987 0 0 1 -6.533-18.982 24.271 24.271 0 0 1 .949-4.691 8 8 0 0 0 -6.781-10.306 87.98 87.98 0 0 0 -97.072 78.646 230.046 230.046 0 0 0 28.277 136.09l12.1 21.627-7.3 72.435a40.006 40.006 0 1 0 24.482 76.174 40.007 40.007 0 0 0 15.584 4.93 40.689 40.689 0 0 0 4.087.206 40.012 40.012 0 0 0 19.524-74.89l7.3-72.435zm-19.2 128.5a24 24 0 0 1 -37.9 17.069 7.993 7.993 0 0 0 -7.973-.8 24 24 0 1 1 -13.492-45.612 8 8 0 0 0 6.753-7.106l7.325-72.64 31.838 3.211-7.324 72.639a8 8 0 0 0 5.2 8.312 23.982 23.982 0 0 1 15.573 24.932zm-8.025-121.418-39.47-3.979-11.3-20.193a214.122 214.122 0 0 1 -26.32-126.669 72 72 0 0 1 70.911-64.773 39.924 39.924 0 0 0 7.414 25.175 48.03 48.03 0 0 0 54.247 65.157 40.49 40.49 0 0 0 7.472 10.156 215.345 215.345 0 0 1 -47.85 97.6z"/><path d="m418 24a8 8 0 0 0 -16 0c0 6.578-1.953 9.508-4.656 13.562-3.272 4.908-7.344 11.016-7.344 22.438s4.072 17.53 7.344 22.438c2.703 4.054 4.656 6.984 4.656 13.562a8 8 0 0 0 16 0c0-11.422-4.072-17.53-7.344-22.438-2.703-4.054-4.656-6.984-4.656-13.562s1.953-9.508 4.656-13.562c3.272-4.908 7.344-11.016 7.344-22.438z"/><path d="m456 24a8 8 0 0 0 -16 0c0 6.578-1.953 9.508-4.656 13.562-3.272 4.908-7.344 11.016-7.344 22.438s4.072 17.53 7.344 22.438c2.703 4.054 4.656 6.984 4.656 13.562a8 8 0 0 0 16 0c0-11.422-4.072-17.53-7.344-22.438-2.703-4.054-4.656-6.984-4.656-13.562s1.953-9.508 4.656-13.562c3.272-4.908 7.344-11.016 7.344-22.438z"/><path d="m496 24a8 8 0 0 0 -16 0c0 6.578-1.953 9.508-4.656 13.562-3.272 4.908-7.344 11.016-7.344 22.438s4.072 17.53 7.344 22.438c2.703 4.054 4.656 6.984 4.656 13.562a8 8 0 0 0 16 0c0-11.422-4.072-17.53-7.344-22.438-2.703-4.054-4.656-6.984-4.656-13.562s1.953-9.508 4.656-13.562c3.272-4.908 7.344-11.016 7.344-22.438z"/><path d="m161.923 215.864a8 8 0 0 0 -9.39-6.309l-15.7 3.081a8 8 0 0 0 3.081 15.7l7.851-1.541 1.541 7.85a8 8 0 0 0 7.841 6.461 8.131 8.131 0 0 0 1.55-.151 8 8 0 0 0 6.309-9.392z"/><path d="m329.552 149.235-15.92-1.605a8 8 0 0 0 -1.605 15.92l7.96.8-.8 7.959a8 8 0 1 0 15.919 1.606l1.6-15.92a8 8 0 0 0 -7.154-8.76z"/><path d="m379.651 210.571 1.6-15.919a8 8 0 0 0 -7.157-8.762l-15.919-1.606a8 8 0 0 0 -1.605 15.92l7.959.8-.8 7.959a8 8 0 0 0 7.157 8.763q.409.04.812.041a8 8 0 0 0 7.953-7.196z"/></g></svg>