<svg width="1078" height="462" viewBox="0 0 1078 462" fill="none" xmlns="http://www.w3.org/2000/svg">
<mask id="mask0" mask-type="alpha" maskUnits="userSpaceOnUse" x="0" y="0" width="1078" height="462">
<rect width="1078" height="462" fill="#C4C4C4"/>
</mask>
<g mask="url(#mask0)">
<mask id="mask1" mask-type="alpha" maskUnits="userSpaceOnUse" x="-311" y="-1097" width="1463" height="1547">
<path d="M1152 -164.02C1152 -164.02 1054.88 -143.025 1042.94 -50.0018C1026.16 82.1046 934.196 137.014 798.35 111.82C635.4 81.7816 559.249 158.009 516.657 235.852C462.125 335.658 370.808 469.703 236.576 447.416C100.408 424.483 144.615 167.699 16.8359 102.776C-89.3235 48.5127 -273.893 168.991 -311 27.8408V-1097H1152L1152 -164.02Z" fill="url(#paint0_linear)"/>
</mask>
<g mask="url(#mask1)">
<path d="M1532.58 -595.915C1611.92 -696.114 1546.89 -773.183 1479.42 -786.663C1383.71 -805.643 1354.69 -760.768 1323.15 -910.44C1312.44 -961.304 1281.25 -1009.61 1232.9 -1031.49C1198.07 -1047.24 1156.27 -1047.61 1122.14 -1030.34C1103.21 -1020.81 1087.12 -1006.4 1069.24 -995.055C1051.36 -983.712 1029.9 -975.274 1009.08 -979.526C989.145 -983.75 973.259 -999.102 961.433 -1015.88C933.094 -1056.06 922.05 -1106.83 889.951 -1144.57C862.9 -1176.45 820.135 -1201.83 777.831 -1203.89C722.722 -1206.48 673.187 -1171.76 632.715 -1137.97C585.14 -1098.39 546.052 -1049.05 516.283 -994.831C478.103 -925.615 455.053 -848.542 443.665 -770.083C433.569 -700.39 432.548 -628.614 448.582 -560.069C473.783 -451.527 557.93 -314.621 687.945 -341.792C844.568 -374.444 810.311 -539.928 912.785 -441.558C974.069 -382.565 1109.18 -327.278 1184.96 -488.922C1260.63 -650.459 1418.24 -451.706 1532.58 -595.915Z" fill="url(#paint1_linear)"/>
<path d="M578.443 249.446C649.457 159.761 591.243 90.7797 530.859 78.7148C445.187 61.7268 419.216 101.893 390.983 -32.0737C381.401 -77.5997 353.48 -120.834 310.21 -140.421C279.036 -154.52 241.62 -154.851 211.071 -139.388C194.124 -130.862 179.727 -117.962 163.724 -107.809C147.721 -97.656 128.51 -90.1035 109.872 -93.9098C92.032 -97.6899 77.8125 -111.431 67.228 -126.45C41.8622 -162.415 31.978 -207.851 3.24701 -241.631C-20.9654 -270.172 -59.242 -292.888 -97.1069 -294.731C-146.433 -297.051 -190.77 -265.972 -226.995 -235.725C-269.578 -200.297 -304.563 -156.136 -331.209 -107.609C-365.382 -45.6561 -386.013 23.3288 -396.206 93.555C-405.242 155.935 -406.156 220.178 -391.805 281.53C-369.249 378.682 -293.932 501.221 -177.56 476.901C-37.3736 447.676 -68.0354 299.557 23.6845 387.605C78.5377 440.407 199.47 489.892 267.301 345.211C335.03 200.626 476.094 378.521 578.443 249.446Z" fill="url(#paint2_linear)"/>
<path d="M692.377 84.4955C776.414 -21.6365 707.525 -103.268 636.067 -117.546C534.684 -137.649 503.949 -90.1175 470.539 -248.651C459.2 -302.526 426.159 -353.69 374.954 -376.868C338.062 -393.552 293.785 -393.945 257.634 -375.645C237.578 -365.557 220.542 -350.291 201.604 -338.276C182.666 -326.261 159.932 -317.323 137.877 -321.828C116.764 -326.301 99.9372 -342.562 87.4115 -360.335C57.3941 -402.895 45.6972 -456.664 11.6973 -496.639C-16.9554 -530.414 -62.2515 -557.296 -107.06 -559.477C-165.433 -562.222 -217.9 -525.444 -260.768 -489.65C-311.16 -447.725 -352.561 -395.465 -384.094 -338.039C-424.533 -264.725 -448.948 -183.089 -461.01 -99.984C-471.704 -26.1647 -472.785 49.8603 -455.802 122.463C-429.109 237.432 -339.981 382.443 -202.268 353.663C-36.3727 319.078 -72.6575 143.797 35.8828 247.991C100.795 310.477 243.905 369.037 324.176 197.822C404.325 26.7223 571.258 237.242 692.377 84.4955Z" fill="url(#paint3_linear)"/>
<path d="M939.748 250.524C1038.67 125.592 957.579 29.4993 873.463 12.6928C754.12 -10.9718 717.941 44.9797 678.613 -141.638C665.265 -205.056 626.37 -265.283 566.094 -292.567C522.668 -312.207 470.548 -312.669 427.992 -291.128C404.384 -279.252 384.329 -261.281 362.037 -247.138C339.745 -232.995 312.984 -222.474 287.021 -227.776C262.169 -233.042 242.361 -252.184 227.616 -273.106C192.281 -323.205 178.512 -386.498 138.49 -433.554C104.761 -473.312 51.4412 -504.956 -1.30519 -507.524C-70.0179 -510.756 -131.779 -467.462 -182.241 -425.327C-241.56 -375.975 -290.295 -314.458 -327.413 -246.859C-375.017 -160.558 -403.757 -64.4608 -417.955 33.3655C-430.543 120.261 -431.816 209.754 -411.825 295.218C-380.404 430.552 -275.487 601.252 -113.378 567.374C81.9042 526.662 39.1918 320.33 166.959 442.982C243.371 516.537 411.832 585.47 506.322 383.927C600.669 182.517 797.173 430.329 939.748 250.524Z" fill="url(#paint4_linear)"/>
<path d="M1682.84 -554.534C1662.8 -688.418 1556.13 -693.927 1496.87 -651.525C1412.9 -591.261 1426.59 -536.338 1288.03 -620.308C1240.95 -648.854 1181.02 -659.705 1129.1 -638.17C1091.71 -622.645 1061.16 -590.593 1049.81 -551.697C1043.47 -530.162 1042.96 -507.291 1038.79 -485.255C1034.62 -463.22 1025.6 -440.516 1007.24 -427.495C989.544 -415.142 966.173 -413.973 944.638 -416.978C893.054 -424.156 845.811 -452.369 793.393 -454.873C749.154 -457.043 698.572 -442.353 666.353 -411.135C624.452 -370.402 615.437 -306.966 612.265 -251.209C608.426 -185.77 618.275 -119.829 638.642 -57.5615C664.517 22.0677 707.42 95.6872 759.838 161.294C806.414 219.555 861.169 272.307 925.774 309.534C1027.94 368.63 1194.71 402.685 1267.83 282.49C1355.97 137.756 1203.22 44.4374 1353.47 36.4244C1443.45 31.7502 1584.01 -32.6877 1513.9 -208.306C1443.78 -383.757 1711.55 -361.722 1682.84 -554.534Z" fill="url(#paint5_linear)"/>
</g>
</g>
<defs>
<linearGradient id="paint0_linear" x1="779" y1="-722.084" x2="-225.5" y2="376.916" gradientUnits="userSpaceOnUse">
<stop stop-color="#FFDF68"/>
<stop offset="1" stop-color="#FCC253"/>
</linearGradient>
<linearGradient id="paint1_linear" x1="559.048" y1="-733.513" x2="1540.57" y2="-646.065" gradientUnits="userSpaceOnUse">
<stop stop-color="#FFDF68"/>
<stop offset="1" stop-color="#FCC253"/>
</linearGradient>
<linearGradient id="paint2_linear" x1="-292.931" y1="126.287" x2="585.586" y2="204.558" gradientUnits="userSpaceOnUse">
<stop stop-color="#FFDF68"/>
<stop offset="1" stop-color="#FCC253"/>
</linearGradient>
<linearGradient id="paint3_linear" x1="-338.797" y1="-61.2489" x2="700.83" y2="31.3762" gradientUnits="userSpaceOnUse">
<stop stop-color="#FFDF68"/>
<stop offset="1" stop-color="#FCC253"/>
</linearGradient>
<linearGradient id="paint4_linear" x1="-274.092" y1="78.9623" x2="949.698" y2="187.995" gradientUnits="userSpaceOnUse">
<stop stop-color="#FFDF68"/>
<stop offset="1" stop-color="#FCC253"/>
</linearGradient>
<linearGradient id="paint5_linear" x1="871.646" y1="98.5587" x2="1649.84" y2="-597.012" gradientUnits="userSpaceOnUse">
<stop stop-color="#FFDF68"/>
<stop offset="1" stop-color="#FCC253"/>
</linearGradient>
</defs>
</svg>
